<svg width="24" height="25" viewBox="0 0 24 25" fill="none" xmlns="http://www.w3.org/2000/svg">
<path d="M16 8.44254C17.5913 8.44254 19.1174 9.08376 20.2426 10.2251C21.3679 11.3665 22 12.9146 22 14.5287V21.6293H18V14.5287C18 13.9907 17.7893 13.4747 17.4142 13.0942C17.0391 12.7137 16.5304 12.5 16 12.5C15.4696 12.5 14.9609 12.7137 14.5858 13.0942C14.2107 13.4747 14 13.9907 14 14.5287V21.6293H10V14.5287C10 12.9146 10.6321 11.3665 11.7574 10.2251C12.8826 9.08376 14.4087 8.44254 16 8.44254V8.44254Z" stroke="#837E9F" stroke-width="2" stroke-linecap="round" stroke-linejoin="round"/>
<path d="M6 9.4569H2V21.6293H6V9.4569Z" stroke="#837E9F" stroke-width="2" stroke-linecap="round" stroke-linejoin="round"/>
<path d="M4 6.41379C5.10457 6.41379 6 5.5055 6 4.38506C6 3.26462 5.10457 2.35632 4 2.35632C2.89543 2.35632 2 3.26462 2 4.38506C2 5.5055 2.89543 6.41379 4 6.41379Z" stroke="#837E9F" stroke-width="2" stroke-linecap="round" stroke-linejoin="round"/>
</svg>
